<svg xmlns="http://www.w3.org/2000/svg" width="23.25" height="32.562" viewBox="0 0 23.25 32.562">
  <g id="Layer_1" transform="translate(-8 -1)">
    <path id="Path_4" data-name="Path 4" d="M8,33.562l3.419-1.71,2.735,1.368,2.735-1.368,2.735,1.368,2.735-1.368L25.1,33.22l2.735-1.368,3.419,1.71V1H8ZM9.368,2.368H29.882V31.349l-2.051-1.026L25.1,31.691,22.36,30.324l-2.735,1.368L16.89,30.324l-2.735,1.368-2.735-1.368L9.368,31.349Z" fill="#fff"/>
    <path id="Path_5" data-name="Path 5" d="M23.419,12.838A3.419,3.419,0,1,0,20,9.419,3.423,3.423,0,0,0,23.419,12.838Zm0-5.471a2.051,2.051,0,1,1-2.051,2.051A2.054,2.054,0,0,1,23.419,7.368Z" transform="translate(-3.794 -1.581)" fill="#fff"/>
    <rect id="Rectangle_2" data-name="Rectangle 2" width="8" height="2" transform="translate(12 14.944)" fill="#fff"/>
    <rect id="Rectangle_3" data-name="Rectangle 3" width="3" height="2" transform="translate(24 14.944)" fill="#fff"/>
    <rect id="Rectangle_4" data-name="Rectangle 4" width="8" height="1" transform="translate(12 18.944)" fill="#fff"/>
    <rect id="Rectangle_5" data-name="Rectangle 5" width="3" height="1" transform="translate(24 18.944)" fill="#fff"/>
    <rect id="Rectangle_6" data-name="Rectangle 6" width="8" height="2" transform="translate(12 21.944)" fill="#fff"/>
    <rect id="Rectangle_7" data-name="Rectangle 7" width="3" height="2" transform="translate(24 21.944)" fill="#fff"/>
    <rect id="Rectangle_8" data-name="Rectangle 8" width="8" height="1" transform="translate(12 25.944)" fill="#fff"/>
    <rect id="Rectangle_9" data-name="Rectangle 9" width="3" height="1" transform="translate(24 25.944)" fill="#fff"/>
  </g>
</svg>
