<svg xmlns="http://www.w3.org/2000/svg" width="25.608" height="22.874" viewBox="0 0 25.608 22.874">
  <path id="Icon_awesome-hotel" data-name="Icon awesome-hotel" d="M23.925,2.734a.683.683,0,0,0,.684-.684V.684A.683.683,0,0,0,23.925,0H.684A.683.683,0,0,0,0,.684V2.051a.683.683,0,0,0,.684.684h.683V19.14H.684A.683.683,0,0,0,0,19.823V21.19a.683.683,0,0,0,.684.684H10.937V18.456a.686.686,0,0,1,.684-.684h1.367a.686.686,0,0,1,.684.684v3.418H23.925a.683.683,0,0,0,.684-.684V19.823a.683.683,0,0,0-.684-.684h-.684V2.734ZM10.937,4.648a.588.588,0,0,1,.547-.547h1.641a.588.588,0,0,1,.547.547V6.289a.588.588,0,0,1-.547.547H11.484a.588.588,0,0,1-.547-.547Zm0,4.1a.588.588,0,0,1,.547-.547h1.641a.588.588,0,0,1,.547.547V10.39a.588.588,0,0,1-.547.547H11.484a.588.588,0,0,1-.547-.547Zm-5.468-4.1A.588.588,0,0,1,6.015,4.1H7.656a.588.588,0,0,1,.547.547V6.289a.588.588,0,0,1-.547.547H6.015a.588.588,0,0,1-.547-.547Zm2.187,6.289H6.015a.588.588,0,0,1-.547-.547V8.75A.588.588,0,0,1,6.015,8.2H7.656A.588.588,0,0,1,8.2,8.75V10.39A.588.588,0,0,1,7.656,10.937ZM8.2,16.405a4.1,4.1,0,0,1,8.2,0ZM19.14,10.39a.588.588,0,0,1-.547.547H16.952a.588.588,0,0,1-.547-.547V8.75a.588.588,0,0,1,.547-.547h1.641a.588.588,0,0,1,.547.547Zm0-4.1a.588.588,0,0,1-.547.547H16.952a.588.588,0,0,1-.547-.547V4.648a.588.588,0,0,1,.547-.547h1.641a.588.588,0,0,1,.547.547Z" transform="translate(0.5 0.5)" fill="none" stroke="#fff" stroke-width="1"/>
</svg>
