<svg xmlns="http://www.w3.org/2000/svg" width="37" height="37" viewBox="0 0 37 37">
  <g id="iconfinder_Log_out_4473020_2_" data-name="iconfinder_Log_out_4473020 (2)" transform="translate(-0.161 -0.917)">
    <rect id="Log-out" width="37" height="37" transform="translate(0.161 0.917)" fill="none"/>
    <path id="Path_10" data-name="Path 10" d="M28.757,14.923a.591.591,0,0,1-.079,1.161c-2.743,0-5.486-.025-8.229,0A5.425,5.425,0,0,0,15.266,21.3c-.02,5.475-.046,10.951,0,16.426a5.38,5.38,0,0,0,5.215,5.183h8.2s.614.145.582.623a.614.614,0,0,1-.582.543c-2.748,0-5.5.025-8.243,0A6.586,6.586,0,0,1,14.1,37.7c-.02-5.482-.046-10.965,0-16.447a6.586,6.586,0,0,1,6.374-6.335h8.2Zm12.508,13.99L32.93,20.577a.5.5,0,0,1-.155-.276.574.574,0,0,1,.567-.719l.046,0a.53.53,0,0,1,.366.169l9.33,9.33a.5.5,0,0,1,.127.271.587.587,0,0,1-.127.553l-9.33,9.33a.493.493,0,0,1-.539.157.608.608,0,0,1-.285-.981l8.335-8.335H19.347a.753.753,0,0,1-.492-.271.577.577,0,0,1,.492-.9H41.265Z" transform="translate(-9.856 -9.918)" fill="#fff"/>
  </g>
</svg>
