<svg xmlns="http://www.w3.org/2000/svg" width="23.25" height="31" viewBox="0 0 23.25 31">
  <g id="Layer_6" data-name="Layer 6" transform="translate(-8)">
    <path id="Path_1" data-name="Path 1" d="M28.1,19.249a.484.484,0,1,0-.484.838A5.347,5.347,0,0,1,30.281,24.7v2.422H27.859a1.453,1.453,0,0,0-1.453,1.453v1.453H12.844V28.578a1.453,1.453,0,0,0-1.453-1.453H8.969V24.7A5.334,5.334,0,0,1,14.3,19.375h3.452a1.938,1.938,0,0,0,3.752,0h3.452a5.386,5.386,0,0,1,.889.074.484.484,0,1,0,.16-.956,6.414,6.414,0,0,0-1.049-.087H21.563V17.1a5.819,5.819,0,0,0,2.253-1.453.512.512,0,0,0,.058-.063,5.785,5.785,0,0,0,1.565-3.957,1.931,1.931,0,0,0,.969-3.606V6.3a6.3,6.3,0,0,0-6.3-6.3h-.969a6.3,6.3,0,0,0-6.3,6.3V8.019a1.931,1.931,0,0,0,.969,3.606,5.785,5.785,0,0,0,1.565,3.954.512.512,0,0,0,.058.063A5.819,5.819,0,0,0,17.688,17.1v1.308H14.3A6.3,6.3,0,0,0,8,24.7v5.813A.484.484,0,0,0,8.484,31H30.766a.484.484,0,0,0,.484-.484V24.7A6.318,6.318,0,0,0,28.1,19.249Zm-11.867-4.17V12.414a7.635,7.635,0,0,1,6.781,0v2.664a4.829,4.829,0,0,1-6.781,0Zm-.969-1.356a4.807,4.807,0,0,1-.474-1.886l.474.474Zm8.719-1.412.474-.474a4.807,4.807,0,0,1-.474,1.887Zm1.453-1.653V8.719a.969.969,0,0,1,0,1.938ZM13.812,6.3A5.334,5.334,0,0,1,19.141.969h.969A5.334,5.334,0,0,1,25.438,6.3V7.75H23.818a1.453,1.453,0,0,1-.961-.363.484.484,0,1,0-.64.726,2.418,2.418,0,0,0,1.6.605h.651v1.737L23.4,11.528a8.657,8.657,0,0,0-7.546,0l-1.071-1.072V8.719h4.526A2.406,2.406,0,0,0,21.02,8.01l.885-.886a.484.484,0,1,0-.685-.685l-.885.886a1.445,1.445,0,0,1-1.028.425H13.812Zm-.969,3.391a.969.969,0,0,1,.969-.969v1.938A.969.969,0,0,1,12.844,9.688Zm6.781,7.75a5.806,5.806,0,0,0,.969-.088v1.541a.969.969,0,0,1-1.937,0V17.35A5.806,5.806,0,0,0,19.625,17.438ZM8.969,30.031V28.094h2.422a.484.484,0,0,1,.484.484v1.453Zm21.313,0H27.375V28.578a.484.484,0,0,1,.484-.484h2.422Z" fill="#fff"/>
    <path id="Path_2" data-name="Path 2" d="M26.484,19a.484.484,0,0,0-.484.484v.484a.484.484,0,0,0,.969,0v-.484A.484.484,0,0,0,26.484,19Z" transform="translate(-9.281 -9.797)" fill="#fff"/>
    <path id="Path_3" data-name="Path 3" d="M36,19.484v.484a.484.484,0,0,0,.969,0v-.484a.484.484,0,0,0-.969,0Z" transform="translate(-14.438 -9.797)" fill="#fff"/>
  </g>
</svg>
