<svg xmlns="http://www.w3.org/2000/svg" width="25.999" height="24" viewBox="0 0 25.999 24">
  <g id="layer1" transform="translate(-3.001 -1024.362)">
    <path id="rect3486" d="M6.094,4A2.1,2.1,0,0,0,4,6.1v2.27a2.5,2.5,0,0,0-.389.289,1.706,1.706,0,0,0-.547,1.723L5,16.924A.5.5,0,0,0,5,17.111L3.055,25.654a1.793,1.793,0,0,0,.572,1.7A2.432,2.432,0,0,0,5.275,28H26.725a2.432,2.432,0,0,0,1.648-.648,1.793,1.793,0,0,0,.572-1.7L26.994,17.1a.5.5,0,0,0,.006-.17l1.938-6.555a1.706,1.706,0,0,0-.547-1.723A2.5,2.5,0,0,0,28,8.363V6.1A2.1,2.1,0,0,0,25.9,4Zm0,1H25.9A1.083,1.083,0,0,1,27,6.1v1.93A2.349,2.349,0,0,0,26.725,8H5.275A2.35,2.35,0,0,0,5,8.025V6.1A1.083,1.083,0,0,1,6.094,5Zm5.4,1a.5.5,0,1,0,.5.5A.5.5,0,0,0,11.5,6Zm9,0a.5.5,0,1,0,.5.5A.5.5,0,0,0,20.5,6ZM5.275,9H26.725a1.591,1.591,0,0,1,.992.391.653.653,0,0,1,.262.7L26.084,16.5H24.5a.5.5,0,1,0,0,1h1.561l1.912,8.377a.746.746,0,0,1-.279.742,1.507,1.507,0,0,1-.967.381H5.275a1.507,1.507,0,0,1-.967-.381.746.746,0,0,1-.279-.742L5.941,17.5H7.5a.5.5,0,1,0,0-1H5.916L4.021,10.094a.653.653,0,0,1,.262-.7A1.591,1.591,0,0,1,5.275,9Zm16.238,1.994v0a.5.5,0,0,0-.182.027l-2.986,1a.5.5,0,1,0,.316.947L21,12.189V24.508a.5.5,0,1,0,1,0v-13q0-.008,0-.016a.5.5,0,0,0-.008-.084q0-.015-.006-.029a.5.5,0,0,0-.043-.113l-.014-.025A.5.5,0,0,0,21.514,10.994ZM14.473,11a3.487,3.487,0,0,0-3.3,2.6.5.5,0,1,0,.967.256,2.46,2.46,0,0,1,2.812-1.813A2.5,2.5,0,0,1,14.527,17a.5.5,0,0,0-.17.027C14.238,17.016,14.12,17,14,17a.5.5,0,1,0,0,1,3,3,0,1,1-3,3,.5.5,0,1,0-1,0,4,4,0,1,0,6.1-3.4,3.495,3.495,0,0,0-.965-6.549A3.427,3.427,0,0,0,14.473,11Z" transform="translate(0 1020.362)" fill="#fff" fill-rule="evenodd"/>
  </g>
</svg>
