<svg xmlns="http://www.w3.org/2000/svg" width="31" height="31" viewBox="0 0 31 31">
  <g id="Icon_feather-settings" data-name="Icon feather-settings" transform="translate(-1 -1)">
    <path id="Path_702" data-name="Path 702" d="M21.682,17.591A4.091,4.091,0,1,1,17.591,13.5,4.091,4.091,0,0,1,21.682,17.591Z" transform="translate(-1.091 -1.091)" fill="none" stroke="#fff" stroke-linecap="round" stroke-linejoin="round" stroke-width="1"/>
    <path id="Path_703" data-name="Path 703" d="M26.591,20.591a2.25,2.25,0,0,0,.45,2.482l.082.082a2.729,2.729,0,1,1-3.859,3.859l-.082-.082a2.268,2.268,0,0,0-3.845,1.609v.232a2.727,2.727,0,1,1-5.455,0V28.65a2.25,2.25,0,0,0-1.473-2.059,2.25,2.25,0,0,0-2.482.45l-.082.082a2.729,2.729,0,1,1-3.859-3.859l.082-.082a2.268,2.268,0,0,0-1.609-3.845H4.227a2.727,2.727,0,1,1,0-5.455H4.35a2.25,2.25,0,0,0,2.059-1.473,2.25,2.25,0,0,0-.45-2.482l-.082-.082A2.729,2.729,0,1,1,9.736,5.986l.082.082a2.25,2.25,0,0,0,2.482.45h.109a2.25,2.25,0,0,0,1.364-2.059V4.227a2.727,2.727,0,0,1,5.455,0V4.35a2.268,2.268,0,0,0,3.845,1.609l.082-.082a2.729,2.729,0,1,1,3.859,3.859l-.082.082a2.25,2.25,0,0,0-.45,2.482v.109a2.25,2.25,0,0,0,2.059,1.364h.232a2.727,2.727,0,1,1,0,5.455H28.65a2.25,2.25,0,0,0-2.059,1.364Z" transform="translate(0 0)" fill="none" stroke="#fff" stroke-linecap="round" stroke-linejoin="round" stroke-width="1"/>
  </g>
</svg>
