<svg xmlns="http://www.w3.org/2000/svg" width="29.19" height="22.976" viewBox="0 0 29.19 22.976">
  <path id="Icon_awesome-spa" data-name="Icon awesome-spa" d="M27.811,10.08a15.652,15.652,0,0,0-10.466,4.062,12.576,12.576,0,0,0-3.25,4.643,12.576,12.576,0,0,0-3.25-4.643A15.652,15.652,0,0,0,.379,10.08.372.372,0,0,0,0,10.463a13.553,13.553,0,0,0,4.345,9.754A12.99,12.99,0,0,0,14.1,24.176a12.989,12.989,0,0,0,9.751-3.958,13.551,13.551,0,0,0,4.345-9.754A.372.372,0,0,0,27.811,10.08ZM14.094,15.493a13.465,13.465,0,0,1,2.158-2.473A14.647,14.647,0,0,1,19.2,10.81a16.144,16.144,0,0,0-4.734-8.429.588.588,0,0,0-.741,0A16.144,16.144,0,0,0,8.991,10.8a14.389,14.389,0,0,1,2.9,2.172,13.839,13.839,0,0,1,2.2,2.519Z" transform="translate(0.5 -1.7)" fill="none" stroke="#fff" stroke-width="1"/>
</svg>
