<svg xmlns="http://www.w3.org/2000/svg" width="27" height="21.375" viewBox="0 0 27 21.375">
  <g id="Icon_ionic-ios-list" data-name="Icon ionic-ios-list" transform="translate(-4.5 -7.313)">
    <path id="Path_704" data-name="Path 704" d="M8.438,18a1.969,1.969,0,1,1-1.969-1.969A1.969,1.969,0,0,1,8.438,18Z" fill="#fff"/>
    <path id="Path_705" data-name="Path 705" d="M8.438,9.281A1.969,1.969,0,1,1,6.469,7.313,1.969,1.969,0,0,1,8.438,9.281Z" fill="#fff"/>
    <path id="Path_706" data-name="Path 706" d="M8.438,26.719A1.969,1.969,0,1,1,6.469,24.75a1.969,1.969,0,0,1,1.969,1.969Z" fill="#fff"/>
    <path id="Path_707" data-name="Path 707" d="M30.375,16.875H13.465a1.125,1.125,0,0,0,0,2.25h16.91a1.125,1.125,0,0,0,0-2.25Z" fill="#fff"/>
    <path id="Path_708" data-name="Path 708" d="M30.375,25.594H13.465a1.125,1.125,0,0,0,0,2.25h16.91a1.125,1.125,0,0,0,0-2.25Z" fill="#fff"/>
    <path id="Path_709" data-name="Path 709" d="M13.465,10.406h16.91a1.125,1.125,0,0,0,0-2.25H13.465a1.125,1.125,0,0,0,0,2.25Z" fill="#fff"/>
  </g>
</svg>
